# xmcd
#
# Track frame offsets:
#	150
#	11595
#	22930
#	37445
#	49723
#	61855
#	73388
#	90558
#	100605
#	112507
#
# Disc length: 1637 seconds
#
# Revision: 0
# Processed by: cddbd v1.5.1PL0 Copyright (c) Steve Scherf et al.
# Submitted via: dBpowerAMP V4.0
#
DISCID=7706630a
DTITLE=Conway Twitty - Some Of My Best Vol.1
DYEAR=1995
DGENRE=Country
TTITLE0=It's Only Make Believe
TTITLE1=As Soon As I Hang Up The Phone
TTITLE2=You've Never Been This Far Before
TTITLE3=She Needs Someone To Hold Her ( When She Cries )
TTITLE4=I Can't See Me Without You
TTITLE5=Hello Darlin'
TTITLE6=Don't Cry Joni
TTITLE7=I'll Try
TTITLE8=To See An Angel Cry
TTITLE9=( I Can't Believe ) She Gives It All To Me
EXTD=
EXTT0=
EXTT1=
EXTT2=
EXTT3=
EXTT4=
EXTT5=
EXTT6=
EXTT7=
EXTT8=
EXTT9=
PLAYORDER=
